<svg xmlns="http://www.w3.org/2000/svg" width="445" height="190" viewBox="0 0 445 190">
<style>text{font-family:Arial,sans-serif;fill:#c9d1d9}.lb{fill:#8b949e;font-size:12px}.ti{fill:#58a6ff;font-size:16px;font-weight:bold}</style>
<rect x="1" y="1" rx="4" width="443" height="188" fill="#0d1117" stroke="#30363d"/>
<text x="25" y="35" class="ti">Most Used Languages</text>
<g transform="translate(15,55)"><rect x="0" y="0" width="168" height="8" rx="3" fill="#3178c6"/><rect x="168" y="0" width="108" height="8" rx="3" fill="#f1e05a"/><rect x="276" y="0" width="52" height="8" rx="3" fill="#e34c26"/><rect x="328" y="0" width="43" height="8" rx="3" fill="#3572A5"/><rect x="371" y="0" width="13" height="8" rx="3" fill="#89e051"/><rect x="384" y="0" width="13" height="8" rx="3" fill="#dea584"/><rect x="397" y="0" width="9" height="8" rx="3" fill="#A97BFF"/><rect x="406" y="0" width="4" height="8" rx="3" fill="#f34b7d"/></g>
<g transform="translate(0,75)"><g transform="translate(15,0)"><circle cx="6" cy="6" r="6" fill="#3178c6"/><text x="20" y="11" class="lb">TypeScript 40.6%</text></g><g transform="translate(225,0)"><circle cx="6" cy="6" r="6" fill="#f1e05a"/><text x="20" y="11" class="lb">JavaScript 26.0%</text></g><g transform="translate(15,25)"><circle cx="6" cy="6" r="6" fill="#e34c26"/><text x="20" y="11" class="lb">HTML 12.5%</text></g><g transform="translate(225,25)"><circle cx="6" cy="6" r="6" fill="#3572A5"/><text x="20" y="11" class="lb">Python 10.4%</text></g><g transform="translate(15,50)"><circle cx="6" cy="6" r="6" fill="#89e051"/><text x="20" y="11" class="lb">Shell 3.1%</text></g><g transform="translate(225,50)"><circle cx="6" cy="6" r="6" fill="#dea584"/><text x="20" y="11" class="lb">Rust 3.1%</text></g><g transform="translate(15,75)"><circle cx="6" cy="6" r="6" fill="#A97BFF"/><text x="20" y="11" class="lb">Kotlin 2.1%</text></g><g transform="translate(225,75)"><circle cx="6" cy="6" r="6" fill="#f34b7d"/><text x="20" y="11" class="lb">C++ 1.0%</text></g></g>
</svg>