<svg xmlns="http://www.w3.org/2000/svg" width="470" height="178" viewBox="0 0 470 178"><rect width="470" height="178" rx="6" fill="#0d1117"/><text x="20" y="35" font-family="Arial,sans-serif" font-size="16" font-weight="bold" fill="#58a6ff">Most Used Languages</text><g transform="translate(15,55)"><rect x="0" y="0" width="177" height="8" rx="3" fill="#3178c6"/><rect x="177" y="0" width="114" height="8" rx="3" fill="#f1e05a"/><rect x="291" y="0" width="59" height="8" rx="3" fill="#e34c26"/><rect x="350" y="0" width="45" height="8" rx="3" fill="#3572A5"/><rect x="395" y="0" width="14" height="8" rx="3" fill="#89e051"/><rect x="409" y="0" width="14" height="8" rx="3" fill="#dea584"/><rect x="423" y="0" width="9" height="8" rx="3" fill="#A97BFF"/><rect x="432" y="0" width="4" height="8" rx="3" fill="#f34b7d"/></g><circle cx="20" cy="77" r="5" fill="#3178c6"/><text x="31" y="82" font-family="Arial,sans-serif" font-size="12" fill="#8b949e">TypeScript 40.2%</text><circle cx="240" cy="77" r="5" fill="#f1e05a"/><text x="251" y="82" font-family="Arial,sans-serif" font-size="12" fill="#8b949e">JavaScript 25.8%</text><circle cx="20" cy="101" r="5" fill="#e34c26"/><text x="31" y="106" font-family="Arial,sans-serif" font-size="12" fill="#8b949e">HTML 13.4%</text><circle cx="240" cy="101" r="5" fill="#3572A5"/><text x="251" y="106" font-family="Arial,sans-serif" font-size="12" fill="#8b949e">Python 10.3%</text><circle cx="20" cy="125" r="5" fill="#89e051"/><text x="31" y="130" font-family="Arial,sans-serif" font-size="12" fill="#8b949e">Shell 3.1%</text><circle cx="240" cy="125" r="5" fill="#dea584"/><text x="251" y="130" font-family="Arial,sans-serif" font-size="12" fill="#8b949e">Rust 3.1%</text><circle cx="20" cy="149" r="5" fill="#A97BFF"/><text x="31" y="154" font-family="Arial,sans-serif" font-size="12" fill="#8b949e">Kotlin 2.1%</text><circle cx="240" cy="149" r="5" fill="#f34b7d"/><text x="251" y="154" font-family="Arial,sans-serif" font-size="12" fill="#8b949e">C++ 1.0%</text></svg>